<?xml version="1.0" encoding="utf-8"?>
<!-- Generator: Adobe Illustrator 22.1.0, SVG Export Plug-In . SVG Version: 6.00 Build 0)  -->
<svg version="1.1" id="Layer_1" xmlns="http://www.w3.org/2000/svg" xmlns:xlink="http://www.w3.org/1999/xlink" x="0px" y="0px"
	 viewBox="0 0 56 56" style="enable-background:new 0 0 56 56;" xml:space="preserve">
<style type="text/css">
	.st0{fill:#888888;}
</style>
<path class="st0" d="M28,51.9c13.1,0,23.9-10.8,23.9-23.9C51.9,14.9,41,4.1,28,4.1C14.9,4.1,4.1,14.9,4.1,28
	C4.1,41.1,14.9,51.9,28,51.9z M19.6,38.4c-1.1,0-2-0.9-2-2c0-0.5,0.2-1,0.6-1.4l7-7l-7-7c-0.4-0.3-0.6-0.8-0.6-1.4
	c0-1.1,0.9-1.9,2-1.9c0.5,0,1,0.2,1.4,0.6l7,7l7.1-7c0.4-0.4,0.8-0.6,1.3-0.6c1.1,0,2,0.9,2,2c0,0.5-0.2,1-0.6,1.4l-7,7.1l7,7
	c0.4,0.4,0.6,0.8,0.6,1.4c0,1.1-0.9,2-2,2c-0.6,0-1-0.2-1.4-0.6l-7-7l-7,7C20.6,38.2,20.1,38.4,19.6,38.4z"/>
</svg>
